<svg xmlns="http://www.w3.org/2000/svg" viewBox="0 0 32 32">
  <defs>
    <linearGradient id="g" x1="0%" y1="0%" x2="100%" y2="100%">
      <stop offset="0%" stop-color="#e63946"/>
      <stop offset="100%" stop-color="#c9a84c"/>
    </linearGradient>
  </defs>
  <!-- Background -->
  <rect width="32" height="32" rx="7" fill="url(#g)"/>
  <!-- Wheels (drawn first so body overlaps the top half) -->
  <circle cx="10" cy="24" r="3.2" fill="#1a1a1a"/>
  <circle cx="22" cy="24" r="3.2" fill="#1a1a1a"/>
  <circle cx="10" cy="24" r="1.3" fill="#555"/>
  <circle cx="22" cy="24" r="1.3" fill="#555"/>
  <!-- Lower body -->
  <rect x="4" y="19" width="24" height="5" rx="2.5" fill="white"/>
  <!-- Cabin -->
  <path fill="white" d="M9 19 L11.5 14 Q12.5 13 14.5 13 L17.5 13 Q19.5 13 20.5 14 L23 19 Z"/>
  <!-- Window tint -->
  <path fill="rgba(0,0,0,0.25)" d="M12.5 14.5 L11 18.5 L14.8 18.5 L14.8 14 Q14 13.5 13 14 Z"/>
  <path fill="rgba(0,0,0,0.25)" d="M17.2 14 L17.2 18.5 L21 18.5 L19.5 14.5 Q18.5 13.5 17.5 14 Z"/>
</svg>
