<svg xmlns="http://www.w3.org/2000/svg" viewBox="0 0 32 32">
  <!-- lift posts -->
  <rect x="4" y="16" width="3" height="14" rx="1.2" fill="#17408f"/>
  <rect x="25" y="16" width="3" height="14" rx="1.2" fill="#17408f"/>
  <!-- lift arms -->
  <rect x="2" y="14" width="7" height="2.5" rx="1" fill="#17408f"/>
  <rect x="23" y="14" width="7" height="2.5" rx="1" fill="#17408f"/>
  <!-- car body -->
  <path d="M7 14 C8 10 10 8 13 7.5 L19 7.5 C22 8 24 10 25 14 Z" fill="#0d1b2f"/>
  <rect x="7" y="12" width="18" height="5" rx="2" fill="#0d1b2f"/>
  <!-- windows -->
  <path d="M9.5 12 C10 9.5 11.5 8.5 13.5 8.5 H18.5 C20.5 8.5 21.5 9.5 22 12 Z" fill="#7ba0e8" opacity="0.85"/>
  <!-- wheels -->
  <circle cx="11" cy="17.5" r="3" fill="#1a2a3a"/>
  <circle cx="11" cy="17.5" r="1.5" fill="#4a6080"/>
  <circle cx="21" cy="17.5" r="3" fill="#1a2a3a"/>
  <circle cx="21" cy="17.5" r="1.5" fill="#4a6080"/>
</svg>
